HIERARCHY
ROOT Hips
{
	OFFSET -0.0000 0.0000 0.0000
	CHANNELS 6 Xposition Yposition Zposition Zrotation Xrotation Yrotation
	JOINT LeftUpperLeg
	{
		OFFSET -5.2299 -9.3936 -2.7607
		CHANNELS 3 Zrotation Xrotation Yrotation
		JOINT LeftLowerLeg
		{
			OFFSET -5.8867 -41.6441 -0.6557
			CHANNELS 3 Zrotation Xrotation Yrotation
			JOINT LeftFoot
			{
				OFFSET 4.1738 -43.7584 -2.9512
				CHANNELS 3 Zrotation Xrotation Yrotation
				JOINT LeftToe
				{
					OFFSET -4.9294 -6.5279 12.6259
					CHANNELS 3 Zrotation Xrotation Yrotation
					End Site
					{
						OFFSET 0.0000 5.0000 0.0000
					}
				}
			}
		}
	}
	JOINT RightUpperLeg
	{
		OFFSET 5.7193 -10.6548 -2.2218
		CHANNELS 3 Zrotation Xrotation Yrotation
		JOINT RightLowerLeg
		{
			OFFSET 4.8074 -39.7560 -1.4061
			CHANNELS 3 Zrotation Xrotation Yrotation
			JOINT RightFoot
			{
				OFFSET -1.4489 -44.6852 -1.8030
				CHANNELS 3 Zrotation Xrotation Yrotation
				JOINT RightToe
				{
					OFFSET 4.0575 -6.5287 12.7076
					CHANNELS 3 Zrotation Xrotation Yrotation
					End Site
					{
						OFFSET 0.0000 5.0000 0.0000
					}
				}
			}
		}
	}
	JOINT Spine
	{
		OFFSET -0.0000 11.2930 0.0000
		CHANNELS 3 Zrotation Xrotation Yrotation
		JOINT Spine1
		{
			OFFSET -0.0000 14.5636 0.0000
			CHANNELS 3 Zrotation Xrotation Yrotation
			JOINT Spine2
			{
				OFFSET -0.0000 5.6082 0.0000
				CHANNELS 3 Zrotation Xrotation Yrotation
				JOINT Neck
				{
					OFFSET -0.0000 17.1365 0.0000
					CHANNELS 3 Zrotation Xrotation Yrotation
					JOINT Head
					{
						OFFSET -2.4654 17.5391 2.4463
						CHANNELS 3 Zrotation Xrotation Yrotation
						End Site
						{
							OFFSET 0.0000 5.0000 0.0000
						}
					}
				}
				JOINT LeftShoulder
				{
					OFFSET -4.7725 8.7643 -0.8375
					CHANNELS 3 Zrotation Xrotation Yrotation
					JOINT LeftUpperArm
					{
						OFFSET -12.6285 5.7680 -1.3885
						CHANNELS 3 Zrotation Xrotation Yrotation
						JOINT LeftLowerArm
						{
							OFFSET -27.2907 -6.9853 -3.9094
							CHANNELS 3 Zrotation Xrotation Yrotation
							JOINT LeftHand
							{
								OFFSET -27.6174 2.1254 -0.2478
								CHANNELS 3 Zrotation Xrotation Yrotation
								End Site
								{
									OFFSET 0.0000 5.0000 0.0000
								}
							}
						}
					}
				}
				JOINT RightShoulder
				{
					OFFSET 4.6636 8.6612 -1.4864
					CHANNELS 3 Zrotation Xrotation Yrotation
					JOINT RightUpperArm
					{
						OFFSET 10.9342 5.3674 -0.9118
						CHANNELS 3 Zrotation Xrotation Yrotation
						JOINT RightLowerArm
						{
							OFFSET 29.2029 -3.5440 -2.4565
							CHANNELS 3 Zrotation Xrotation Yrotation
							JOINT RightHand
							{
								OFFSET 27.1879 -0.4835 -1.6445
								CHANNELS 3 Zrotation Xrotation Yrotation
								End Site
								{
									OFFSET 0.0000 5.0000 0.0000
								}
							}
						}
					}
				}
			}
		}
	}
}
MOTION
Frames: 10
Frame Time: 0.033333
27.155130 98.479820 174.418488 0.536016 -3.897225 5.401787 -0.282077 23.047830 3.332189 0.157072 14.148030 0.165995 4.482709 9.352492 3.159555 10.444420 -19.917523 7.806608 -1.395763 -27.128791 -5.304553 -2.371424 12.476355 0.243274 -13.896573 23.967324 7.260524 5.806790 -6.861386 -3.892745 3.459566 6.467244 0.875962 -7.889270 0.444650 7.396783 5.756680 9.035443 -4.780702 -2.066907 -17.931103 -1.590796 -0.116001 2.810464 0.152362 2.969463 1.829136 7.905232 59.700300 4.182163 17.804534 6.009061 -1.527402 21.707660 5.897952 -2.775678 3.924371 -6.677612 -3.278047 -1.139722 -62.989701 36.899951 -10.265918 -2.726206 1.445994 -16.782422 -7.425985 -18.578048 2.476231
28.344954 99.002808 178.922272 2.707619 -2.771780 5.165046 -4.022459 17.077950 4.313087 1.078177 24.242822 0.370308 6.666884 21.031094 1.001882 10.409717 -24.130262 9.620892 -4.124197 -26.180165 -5.198334 -2.775366 14.178298 1.065973 -12.220546 22.120831 5.732382 6.057372 -5.093368 -3.385032 1.355803 5.927406 1.250292 -5.982144 -0.354822 6.174766 3.230117 9.325099 -3.954513 -1.830814 -18.108325 -2.017858 -0.089362 2.948940 0.097222 2.246621 1.064469 7.780142 61.806072 4.573330 16.466070 6.141568 -1.330175 20.389212 6.023830 -4.032835 3.586898 -5.032872 -3.446498 -1.382232 -63.693495 37.538438 -10.294498 -3.118175 1.620838 -17.215852 -7.024945 -17.127761 2.995712
29.314053 99.567291 183.116043 4.621693 -1.746637 5.036140 -7.126597 9.353355 5.254782 1.781191 35.256529 -0.061212 11.763508 32.503179 -2.430745 7.048939 -17.283001 6.587445 -6.612423 -25.052073 -5.317975 -3.234829 15.925246 1.862354 -9.666733 17.295910 3.914493 5.181249 -4.213386 -3.418271 -0.778243 5.458541 1.433925 -3.569151 -1.142744 4.707909 0.858843 10.074985 -3.262093 -1.880641 -18.832293 -2.168007 -0.107231 2.733733 -0.053612 2.090189 0.257429 7.917278 62.716679 5.073891 15.513327 6.205892 -1.050246 19.737889 6.514554 -4.734947 3.459701 -4.220813 -3.740904 -1.710632 -63.200069 38.180400 -10.935532 -3.082441 1.839282 -18.074744 -7.201635 -15.745350 3.294990
30.089199 100.005890 187.012405 6.098205 -1.069192 5.235562 -8.943801 1.483804 5.524392 2.053471 45.229680 -0.348231 16.472639 39.343624 -5.517259 4.418769 -7.544133 1.994822 -8.609865 -23.281564 -5.544780 -3.485777 16.710944 2.539322 -7.736420 13.153866 2.350479 4.192111 -3.454900 -3.355088 -2.698494 5.210534 1.305024 -1.059045 -1.678853 3.211542 -1.075483 10.950298 -2.676443 -2.336031 -19.631106 -2.508457 0.122284 2.005343 0.198347 2.213949 -0.300656 7.873351 62.861641 5.513467 15.085281 6.168699 -0.646141 19.589565 7.062245 -5.207679 3.674565 -4.064921 -4.038089 -2.188121 -61.294863 38.862688 -12.574268 -2.931376 2.039125 -19.090870 -7.253039 -14.668899 3.471392
30.753199 100.470390 190.711090 7.113120 -0.834265 6.080308 -10.094409 -5.817351 4.232373 3.118623 54.132870 -0.296712 15.430413 36.313992 -5.250181 4.117134 -6.727987 1.717822 -10.197960 -20.652892 -6.416519 -3.577031 16.594837 3.128080 -6.248367 9.886691 1.063580 3.133607 -2.879482 -3.194131 -4.196210 5.222916 0.882046 1.219063 -1.699055 1.677522 -2.623674 11.311485 -2.200591 -2.740919 -19.859229 -3.086381 0.302406 1.081314 0.723330 2.609182 -0.525983 7.470654 62.690026 5.986866 14.806286 6.153339 -0.275652 19.457022 7.257311 -5.337207 4.027185 -4.061165 -4.048648 -2.702314 -58.278063 39.438670 -15.341891 -2.792363 2.158387 -19.838294 -7.164862 -13.759792 3.707786
31.363621 100.937607 194.259888 7.948028 -1.016007 7.395636 -11.444638 -12.148739 1.508934 4.125904 59.515597 -0.414569 13.165875 31.870606 -5.425542 3.859155 -7.373454 2.204143 -11.550277 -17.045660 -7.617410 -3.450530 15.440951 3.601953 -4.878436 7.316254 -0.040684 1.965441 -2.418561 -3.057795 -5.424252 5.457790 0.243459 3.199971 -1.385805 0.177224 -3.814764 11.390662 -1.870635 -3.011550 -19.656119 -3.764730 0.450994 0.511736 1.443258 2.827886 -0.656066 6.921413 62.664679 6.508795 14.360267 6.121837 0.043395 19.194697 7.125654 -5.176128 4.167353 -3.812441 -3.934985 -3.181206 -55.050049 39.656472 -18.849053 -2.711785 2.084950 -20.039947 -7.128479 -12.640610 3.961337
31.934088 101.382187 197.713058 8.786977 -1.468740 8.942266 -13.409011 -17.295875 -2.305883 4.330234 61.071057 -0.227518 11.266627 28.476425 -6.594989 3.475154 -8.048596 2.694529 -12.759322 -12.537875 -8.933196 -3.043441 13.170823 3.927126 -3.562355 5.412095 -0.993896 0.620793 -2.172265 -2.977249 -6.516540 5.826751 -0.472668 4.902586 -0.753195 -1.315677 -4.735849 11.128502 -1.618462 -3.123682 -19.114361 -4.441051 0.520637 0.185146 2.124398 2.928476 -0.646861 6.273034 62.739225 7.011168 13.694272 6.107634 0.243133 18.903139 6.814003 -4.658336 3.977774 -3.350851 -3.717440 -3.612087 -52.091600 39.242629 -22.537870 -2.684796 1.881050 -20.017541 -7.104942 -11.246454 4.090344
32.453339 101.754448 201.198822 9.517461 -2.069696 10.524679 -15.597257 -21.160849 -6.393566 3.766687 59.265616 0.376707 10.120666 25.817477 -7.552057 3.046742 -8.589411 3.117042 -13.561862 -7.511948 -9.993250 -2.489031 10.270574 4.143626 -2.370705 3.921785 -2.057567 -0.845971 -2.132223 -2.898821 -7.439831 6.289093 -1.112854 6.419419 0.041175 -2.786587 -5.431717 10.600199 -1.323166 -3.118062 -18.376659 -5.076057 0.551461 -0.093303 2.797826 3.068910 -0.444785 5.514440 62.742980 7.432432 12.822644 6.135852 0.360422 18.738943 6.457992 -4.017840 3.636505 -2.725809 -3.449125 -4.096540 -49.731011 38.231506 -25.952442 -2.720545 1.609013 -20.068196 -7.065325 -9.904260 4.006268
32.907192 102.031433 204.779144 9.960147 -2.666222 11.983682 -17.224133 -23.854101 -9.775995 2.793379 54.388674 1.101677 9.970305 23.487976 -7.656773 2.497550 -9.122202 3.482368 -13.723352 -2.529834 -10.599753 -1.999680 7.374275 4.278656 -1.447377 2.655517 -3.256573 -2.259363 -2.174204 -2.792735 -8.115297 6.791899 -1.582491 7.844677 0.707077 -4.194295 -5.989630 10.090208 -0.936156 -3.000829 -17.666651 -5.629411 0.574699 -0.372620 3.504806 3.370714 -0.205870 4.758388 62.601398 7.906777 11.773700 6.232730 0.442636 18.719673 6.124147 -3.267571 3.394306 -1.969573 -3.320169 -4.627889 -48.112873 36.938661 -28.833223 -2.752282 1.303556 -20.399650 -6.982986 -9.069685 3.730571
33.280052 102.154282 208.470840 10.147559 -3.093508 13.349295 -18.030366 -25.499764 -12.104560 1.633273 46.694353 1.630311 10.898576 21.796283 -7.466427 1.563569 -9.763241 3.819773 -13.366218 1.879841 -11.094219 -1.742742 5.128361 4.319305 -0.717376 1.270098 -4.252861 -3.482983 -2.171945 -2.698621 -8.565251 7.279098 -1.920444 9.140953 0.997149 -5.465797 -6.464847 9.892848 -0.548671 -2.744973 -17.155444 -6.059538 0.659532 -0.766762 4.172707 3.824015 -0.071831 4.110918 62.425090 8.542534 10.614667 6.367059 0.523282 18.721171 5.887546 -2.583065 3.437574 -1.225880 -3.318348 -5.081850 -46.905012 35.745918 -31.313238 -2.638690 0.985976 -21.197410 -6.773150 -9.142575 3.154701
